:FULLY-SPECIFIED
:FORCE-ALL-JOINTS-BE-3DOF
:DEGREES
713
root 5.53607 21.5024 7.37116 -102.717 -87.1622 118.866
lfemur -34.9299 -12.5424 9.85757
ltibia 72.7993 0 0
lfoot 6.24048 -7.93404 0
ltoes 30.7445 0 0
rfemur -32.381 -0.820687 -0.298093
rtibia 85.9465 0 0
rfoot 19.7024 -19.9838 0
rtoes 39.6273 0 0
lowerback 6.24389 -0.845003 -1.86431
upperback -1.23706 -1.36592 -1.60959
thorax -4.78681 -0.654209 -0.484487
lowerneck -6.80617 -6.17299 -2.20632
upperneck -0.148794 -8.21031 4.88501
head 1.42485 -4.03967 1.62491
lclavicle 5.25534e-15 2.67264e-14 0
lhumerus 1.74136 -20.3382 15.4173
lradius 46.2141 0 0
lwrist 23.595 0 0
lhand -21.6102 -3.10482 0
lfingers 7.12502 0 0
lthumb 4.78507 26.8204 0
rclavicle 5.25534e-15 2.67264e-14 0
rhumerus -12.5435 -3.44323 -26.2314
rradius 99.3096 0 0
rwrist -9.60501 0 0
rhand -28.2328 -35.6921 0
rfingers 7.12502 0 0
rthumb -1.61059 -785.654 0
714
root 5.51402 21.5242 7.58268 -124.602 -87.4444 140.872
lfemur -34.2423 -13.5327 9.16707
ltibia 68.9335 0 0
lfoot 6.8877 -8.57361 0
ltoes 30.2928 0 0
rfemur -33.1817 -1.06189 -1.07586
rtibia 91.6291 0 0
rfoot 20.6443 -20.3813 0
rtoes 41.4004 0 0
lowerback 6.13866 -0.719054 -1.83474
upperback -1.27447 -1.19217 -1.58856
thorax -4.76572 -0.568718 -0.497659
lowerneck -6.8379 -6.31623 -2.31967
upperneck -0.28375 -8.39029 4.90018
head 1.39968 -4.13162 1.64246
lclavicle 9.38113e-15 3.08319e-14 0
lhumerus 0.0268217 -20.2782 16.0283
lradius 45.3502 0 0
lwrist 22.9757 0 0
lhand -21.9398 -3.24439 0
lfingers 7.12502 0 0
lthumb 4.46686 26.6882 0
rclavicle 9.38113e-15 3.08319e-14 0
rhumerus -11.7571 -2.59037 -26.973
rradius 99.2689 0 0
rwrist -9.72868 0 0
rhand -27.3142 -34.7527 0
rfingers 7.12502 0 0
rthumb -0.723494 -784.725 0
715
root 5.49097 21.5295 7.79601 -140.605 -87.2103 157.04
lfemur -33.5571 -14.4896 8.51967
ltibia 65.1241 0 0
lfoot 7.43438 -9.44215 0
ltoes 29.8338 0 0
rfemur -33.8349 -1.58686 -1.91882
rtibia 97.0122 0 0
rfoot 21.3635 -20.6634 0
rtoes 42.9309 0 0
lowerback 5.99658 -0.553404 -1.77502
upperback -1.3238 -0.963173 -1.56773
thorax -4.7355 -0.456483 -0.530585
lowerneck -6.88249 -6.45178 -2.43303
upperneck -0.433777 -8.5592 4.89979
head 1.37063 -4.21848 1.65523
lclavicle 1.2921e-14 3.18055e-14 0
lhumerus -1.77093 -20.2407 16.623
lradius 44.6521 0 0
lwrist 22.5382 0 0
lhand -22.2191 -3.35407 0
lfingers 7.12502 0 0
lthumb 4.19717 26.5843 0
rclavicle 1.2921e-14 3.18055e-14 0
rhumerus -10.8552 -1.84384 -27.5558
rradius 99.2563 0 0
rwrist -9.86977 0 0
rhand -26.5547 -33.9151 0
rfingers 7.12502 0 0
rthumb 0.0100137 -783.895 0
716
root 5.46664 21.5159 8.01137 -150.555 -86.375 167.2
lfemur -32.8907 -15.4115 7.92329
ltibia 61.3364 0 0
lfoot 7.85795 -10.6569 0
ltoes 29.3255 0 0
rfemur -34.3129 -2.39754 -2.83639
rtibia 102.177 0 0
rfoot 21.8521 -20.8989 0
rtoes 44.2441 0 0
lowerback 5.80659 -0.351703 -1.68354
upperback -1.39059 -0.682713 -1.54657
thorax -4.69682 -0.319609 -0.586443
lowerneck -6.94195 -6.58728 -2.55485
upperneck -0.604774 -8.72641 4.88306
head 1.33706 -4.30491 1.66404
lclavicle 1.68593e-14 2.87669e-14 0
lhumerus -3.62233 -20.1943 17.1722
lradius 44.1667 0 0
lwrist 22.3434 0 0
lhand -22.4971 -3.44074 0
lfingers 7.12502 0 0
lthumb 3.92875 26.5027 0
rclavicle 1.68593e-14 2.87669e-14 0
rhumerus -9.91478 -1.19399 -27.9218
rradius 99.3156 0 0
rwrist -10.0548 0 0
rhand -25.901 -33.1174 0
rfingers 7.12502 0 0
rthumb 0.64128 -783.1 0
717
root 5.43998 21.4827 8.22804 -156.545 -84.994 173.44
lfemur -32.2501 -16.2796 7.37724
ltibia 57.5214 0 0
lfoot 8.20359 -12.1858 0
ltoes 28.7495 0 0
rfemur -34.59 -3.42391 -3.81502
rtibia 107.17 0 0
rfoot 22.2448 -21.1034 0
rtoes 45.357 0 0
lowerback 5.55856 -0.125328 -1.56912
upperback -1.47726 -0.365888 -1.52585
thorax -4.64698 -0.165539 -0.661898
lowerneck -7.01468 -6.72916 -2.68574
upperneck -0.790845 -8.90079 4.85341
head 1.3013 -4.39513 1.66974
lclavicle 2.18147e-14 2.2418e-14 0
lhumerus -5.4994 -20.1178 17.6845
lradius 43.9093 0 0
lwrist 22.3649 0 0
lhand -22.8207 -3.52473 0
lfingers 7.12502 0 0
lthumb 3.61624 26.4242 0
rclavicle 2.18147e-14 2.2418e-14 0
rhumerus -9.00502 -0.599373 -28.0855
rradius 99.4535 0 0
rwrist -10.2844 0 0
rhand -25.2788 -32.2887 0
rfingers 7.12502 0 0
rthumb 1.24227 -782.271 0
718
root 5.41091 21.4326 8.44555 -159.551 -83.1837 176.735
lfemur -31.6196 -17.0885 6.8723
ltibia 53.7001 0 0
lfoot 8.51363 -13.8852 0
ltoes 28.1463 0 0
rfemur -34.6881 -4.63753 -4.83904
rtibia 111.918 0 0
rfoot 22.6006 -21.2053 0
rtoes 46.2474 0 0
lowerback 5.26115 0.125561 -1.43688
upperback -1.5785 -0.0141097 -1.50645
thorax -4.58424 0.00530392 -0.752127
lowerneck -7.09781 -6.87123 -2.8164
upperneck -0.983144 -9.07516 4.81302
head 1.26493 -4.48546 1.67173
lclavicle 2.69118e-14 1.40123e-14 0
lhumerus -7.4249 -20.0383 18.1957
lradius 43.833 0 0
lwrist 22.5243 0 0
lhand -23.1526 -3.60593 0
lfingers 7.12502 0 0
lthumb 3.29576 26.3484 0
rclavicle 2.69118e-14 1.40123e-14 0
rhumerus -8.0654 -0.0553157 -28.1175
rradius 99.6234 0 0
rwrist -10.5291 0 0
rhand -24.7197 -31.4717 0
rfingers 7.12502 0 0
rthumb 1.78222 -781.45 0
719
root 5.37933 21.3679 8.66338 -160.549 -81.0606 178.059
lfemur -30.9833 -17.8331 6.39928
ltibia 49.8931 0 0
lfoot 8.83041 -15.6111 0
ltoes 27.5565 0 0
rfemur -34.6288 -6.00995 -5.89279
rtibia 116.347 0 0
rfoot 22.9785 -21.1327 0
rtoes 46.8934 0 0
lowerback 4.92302 0.400803 -1.29195
upperback -1.68898 0.37121 -1.48927
thorax -4.50684 0.192497 -0.852303
lowerneck -7.1885 -7.0073 -2.93754
upperneck -1.17282 -9.24229 4.76408
head 1.22954 -4.57223 1.66941
lclavicle 3.12753e-14 4.80329e-15 0
lhumerus -9.4216 -19.9832 18.7419
lradius 43.8908 0 0
lwrist 22.743 0 0
lhand -23.4552 -3.68425 0
lfingers 7.12502 0 0
lthumb 3.00346 26.2747 0
rclavicle 3.12753e-14 4.80329e-15 0
rhumerus -7.03539 0.442862 -28.0886
rradius 99.7783 0 0
rwrist -10.7594 0 0
rhand -24.2557 -30.7092 0
rfingers 7.12502 0 0
rthumb 2.23034 -780.683 0
720
root 5.34515 21.2911 8.88103 -160.516 -78.7412 178.387
lfemur -30.3253 -18.5082 5.94899
ltibia 46.1214 0 0
lfoot 9.19624 -17.2198 0
ltoes 27.0204 0 0
rfemur -34.4339 -7.51272 -6.9606
rtibia 120.384 0 0
rfoot 23.4376 -20.8139 0
rtoes 47.2729 0 0
lowerback 4.55281 0.700237 -1.13946
upperback -1.80339 0.78866 -1.47517
thorax -4.41302 0.395617 -0.957603
lowerneck -7.28388 -7.13118 -3.03987
upperneck -1.35103 -9.39499 4.70875
head 1.19674 -4.65177 1.6622
lclavicle 3.40296e-14 -3.95539e-15 0
lhumerus -11.5123 -19.9798 19.3592
lradius 44.0358 0 0
lwrist 22.9426 0 0
lhand -23.6913 -3.75958 0
lfingers 7.12502 0 0
lthumb 2.77548 26.2027 0
rclavicle 3.40296e-14 -3.95539e-15 0
rhumerus -5.85448 0.899838 -28.0694
rradius 99.8717 0 0
rwrist -10.9456 0 0
rhand -23.9187 -30.044 0
rfingers 7.12502 0 0
rthumb 2.55588 -780.013 0
721
root 5.30828 21.2047 9.09801 -160.43 -76.3418 178.693
lfemur -29.6299 -19.1084 5.51224
ltibia 42.4058 0 0
lfoot 9.65346 -18.5673 0
ltoes 26.5787 0 0
rfemur -34.1251 -9.11739 -8.02679
rtibia 123.956 0 0
rfoot 24.0371 -20.1774 0
rtoes 47.3639 0 0
lowerback 4.15918 1.0237 -0.984533
upperback -1.9164 1.23683 -1.46504
thorax -4.30104 0.614242 -1.0632
lowerneck -7.38108 -7.23667 -3.11411
upperneck -1.50893 -9.52606 4.64922
head 1.16811 -4.72039 1.6495
lclavicle 3.42993e-14 -1.10102e-14 0
lhumerus -13.7196 -20.0555 20.0835
lradius 44.2209 0 0
lwrist 23.0446 0 0
lhand -23.8234 -3.8318 0
lfingers 7.12502 0 0
lthumb 2.64794 26.1321 0
rclavicle 3.42993e-14 -1.10102e-14 0
rhumerus -4.46215 1.32029 -28.1305
rradius 99.8568 0 0
rwrist -11.0583 0 0
rhand -23.7404 -29.5188 0
rfingers 7.12502 0 0
rthumb 2.72805 -779.483 0
722
root 5.26863 21.1112 9.31381 -161.265 -73.9791 179.951
lfemur -28.8811 -19.6287 5.07981
ltibia 38.767 0 0
lfoot 10.2444 -19.5099 0
ltoes 26.2718 0 0
rfemur -33.7241 -10.7955 -9.07571
rtibia 126.988 0 0
rfoot 24.836 -19.1513 0
rtoes 47.1443 0 0
lowerback 3.75077 1.37104 -0.832288
upperback -2.0227 1.7143 -1.45977
thorax -4.16915 0.847949 -1.16427
lowerneck -7.47726 -7.31759 -3.15097
upperneck -1.63767 -9.62828 4.58767
head 1.14524 -4.77444 1.63073
lclavicle 3.12092e-14 -1.51076e-14 0
lhumerus -16.0665 -20.2376 20.9508
lradius 44.3993 0 0
lwrist 22.9706 0 0
lhand -23.814 -3.90081 0
lfingers 7.12502 0 0
lthumb 2.65698 26.0624 0
rclavicle 3.12092e-14 -1.51076e-14 0
rhumerus -2.79787 1.7089 -28.3427
rradius 99.6868 0 0
rwrist -11.0679 0 0
rhand -23.7528 -29.1764 0
rfingers 7.12502 0 0
rthumb 2.71608 -779.139 0
